<?xml version="1.0" standalone="no"?>
<!DOCTYPE svg PUBLIC "-//W3C//DTD SVG 20010904//EN"
 "http://www.w3.org/TR/2001/REC-SVG-20010904/DTD/svg10.dtd">
<svg version="1.0" xmlns="http://www.w3.org/2000/svg"
 width="1280.000000pt" height="1280.000000pt" viewBox="0 0 1280.000000 1280.000000"
 preserveAspectRatio="xMidYMid meet">
<g transform="translate(0.000000,1280.000000) scale(0.100000,-0.100000)"
fill="gold" stroke="none">
<path d="M5937 11992 l-197 -197 0 -308 0 -307 -22 -10 c-13 -5 -66 -16 -118
-25 -157 -26 -448 -102 -606 -156 -368 -127 -667 -287 -938 -502 -115 -92
-547 -514 -670 -657 -314 -361 -491 -749 -568 -1241 -30 -196 -32 -610 -4
-794 74 -484 267 -873 610 -1224 465 -475 1107 -783 2130 -1020 93 -22 173
-45 177 -53 12 -18 11 -2285 0 -2293 -13 -7 -171 61 -264 115 -218 124 -394
309 -517 541 -99 189 -150 359 -194 641 -14 87 -28 162 -31 168 -4 7 -313 10
-897 10 l-891 0 -182 -181 c-101 -100 -188 -192 -195 -205 -11 -20 -10 -53 4
-191 50 -479 152 -838 342 -1202 456 -875 1326 -1389 2632 -1555 100 -13 186
-27 190 -30 4 -4 9 -208 12 -454 l5 -446 75 -18 c63 -14 127 -17 410 -18 214
0 349 4 375 11 31 9 73 45 202 173 100 99 168 176 178 199 12 29 15 85 15 296
0 232 2 261 18 280 14 18 44 26 167 47 398 67 730 175 1075 350 272 138 484
282 717 487 509 450 835 934 988 1472 133 465 148 1059 39 1525 -191 819 -771
1366 -1819 1718 -277 93 -656 194 -985 262 -85 18 -165 38 -177 46 l-23 14 0
998 c0 548 3 1008 7 1020 5 20 10 23 36 18 109 -22 348 -227 442 -379 89 -145
148 -315 184 -530 l17 -102 79 -17 c71 -14 170 -16 865 -17 438 0 802 3 824 9
33 7 69 38 208 177 93 92 176 180 184 195 19 36 18 87 -5 243 -88 596 -320
1090 -685 1458 -460 463 -1103 740 -1968 847 -89 11 -167 25 -174 31 -10 8
-13 111 -16 482 -2 260 -7 478 -11 485 -6 9 -104 12 -430 12 l-422 0 -198
-198z m-203 -2598 c3 -9 6 -420 6 -915 0 -878 0 -899 -19 -899 -33 0 -216 98
-298 159 -155 116 -282 276 -342 431 -127 329 -74 836 108 1018 76 76 224 146
415 197 109 29 122 30 130 9z m1394 -4238 c241 -93 427 -221 544 -375 130
-172 188 -384 188 -688 0 -266 -47 -501 -141 -700 l-39 -81 -92 -45 c-51 -25
-143 -61 -205 -81 -125 -40 -340 -83 -366 -73 -16 6 -17 81 -17 1022 0 682 3
1023 10 1036 14 25 16 25 118 -15z"/>
</g>
</svg>
